<?xml version="1.0" encoding="UTF-8" standalone="no"?>


<!-- Uploaded to: SVG Repo, www.svgrepo.com, Transformed by: SVG Repo Tools -->
<svg 
   xmlns:dc="http://purl.org/dc/elements/1.1/"
   xmlns:cc="http://creativecommons.org/ns#"
   xmlns:rdf="http://www.w3.org/1999/02/22-rdf-syntax-ns#"
   xmlns:svg="http://www.w3.org/2000/svg"
   xmlns="http://www.w3.org/2000/svg"
   xmlns:sodipodi="http://sodipodi.sourceforge.net/DTD/sodipodi-0.dtd"
   xmlns:inkscape="http://www.inkscape.org/namespaces/inkscape"
   width="30"
   height="30"
   viewBox="0 0 30 30"
   version="1.1"
   id="svg822"
   inkscape:version="0.92.4 (f8dce91, 2019-08-02)"
   sodipodi:docname="shopping-cart-add.svg">
  <defs
     id="defs816">
    <inkscape:path-effect
       effect="copy_rotate"
       starting_point="15,304.0625"
       origin="14,304.0625"
       id="path-effect963"
       is_visible="true"
       copies_to_360="true"
       fuse_paths="false"
       starting_angle="0"
       rotation_angle="90"
       num_copies="21" />
    <inkscape:path-effect
       only_selected="false"
       apply_with_weight="true"
       apply_no_weight="true"
       helper_size="0"
       steps="2"
       weight="33.333333"
       is_visible="true"
       id="path-effect1025"
       effect="bspline" />
    <inkscape:path-effect
       only_selected="false"
       apply_with_weight="true"
       apply_no_weight="true"
       helper_size="0"
       steps="2"
       weight="33.333333"
       is_visible="true"
       id="path-effect1021"
       effect="bspline" />
  </defs>
  <sodipodi:namedview
     id="base"
     pagecolor="#ffffff"
     bordercolor="#666666"
     borderopacity="1.0"
     inkscape:pageopacity="0.0"
     inkscape:pageshadow="2"
     inkscape:zoom="12.610071"
     inkscape:cx="13.986959"
     inkscape:cy="21.305521"
     inkscape:document-units="px"
     inkscape:current-layer="layer1"
     showgrid="true"
     units="px"
     inkscape:window-width="1366"
     inkscape:window-height="713"
     inkscape:window-x="0"
     inkscape:window-y="0"
     inkscape:window-maximized="1"
     showguides="false"
     inkscape:guide-bbox="true">
    <sodipodi:guide
       position="21.126168,22.794393"
       orientation="1,0"
       id="guide1575"
       inkscape:locked="false" />
    <sodipodi:guide
       position="22.682243,23.285047"
       orientation="1,0"
       id="guide1635"
       inkscape:locked="false" />
    <sodipodi:guide
       position="22.682243,7.6455921"
       orientation="0,1"
       id="guide1639"
       inkscape:locked="false" />
    <sodipodi:guide
       position="18.859863,18.859863"
       orientation="1,0"
       id="guide1242"
       inkscape:locked="false" />
    <inkscape:grid
       type="xygrid"
       id="grid1103" />
  </sodipodi:namedview>
  <metadata
     id="metadata819">
    <rdf:RDF>
      <cc:Work
         rdf:about="">
        <dc:format>image/svg+xml</dc:format>
        <dc:type
           rdf:resource="http://purl.org/dc/dcmitype/StillImage" />
        <dc:title></dc:title>
      </cc:Work>
    </rdf:RDF>
  </metadata>
  <g
     inkscape:label="Layer 1"
     inkscape:groupmode="layer"
     id="layer1"
     transform="translate(0,-289.0625)">
    <path
       style="opacity:1;fill:#000000;fill-opacity:1;stroke:none;stroke-width:0.5;stroke-miterlimit:4;stroke-dasharray:none;stroke-opacity:1"
       d="M 15 2 L 15 6 L 11 6 L 11 8 L 15 8 L 15 12 L 17 12 L 17 8 L 21 8 L 21 6 L 17 6 L 17 2 L 15 2 z M 4.9882812 5 L 4.9882812 7 L 6.4042969 7 L 10.429688 14.904297 L 9.0996094 17.664062 C 8.6262975 18.646724 9.897579 20 10.988281 20 L 22.988281 20 L 22.988281 18 L 10.988281 18 L 11.927734 16 L 20.488281 16 C 21.042281 16 21.234967 15.4927 21.488281 15 L 24.955078 8.2578125 C 25.20663 7.7685488 24.551646 7.0124711 24 7.0019531 L 20 14 L 12 14 L 8.6503906 7 L 7.6328125 5 L 5.9882812 5 L 5.3867188 5 L 4.9882812 5 z M 10.988281 21 A 2 2 0 0 0 8.9882812 23 A 2 2 0 0 0 10.988281 25 A 2 2 0 0 0 12.988281 23 A 2 2 0 0 0 10.988281 21 z M 20.988281 21 A 2 2 0 0 0 18.988281 23 A 2 2 0 0 0 20.988281 25 A 2 2 0 0 0 22.988281 23 A 2 2 0 0 0 20.988281 21 z "
       id="path824"
       transform="translate(0,289.0625)" />
  </g>
</svg>